<?xml version="1.0" encoding="UTF-8"?>
<svg version="1.1" viewBox="0 0 800 800" width="1280" height="1280" xmlns="http://www.w3.org/2000/svg">
<path transform="translate(0)" d="m0 0h800v800h-800z" fill="#000700"/>
<path transform="translate(314,335)" d="m0 0h8l5 2 1 6v76l-2 10-6 10-8 8-8 5-8 3-6 1h-16l-10-3-9-6-8-8-7-13-2-7v-18l4-11 4-6 5-6 10-7 13-5h16l11 3 9 4-1-2v-32l2-3z" fill="#fff"/>
<path transform="translate(457,365)" d="m0 0 6 1 5 4 1 5 1 50 4 6 7 4 6 1 9-3 6-7 1-2 1-52 5-5 4-2 5 1 5 5 1 3 1 48 3 7 5 5 6 2h7l8-4 5-6 1-53 3-5 6-3 6 2 4 4 1 8v32l-2 18-4 9-4 6-8 7-10 4-7 1h-8l-12-3-8-5-4-2-7 6-7 3-5 1h-16l-11-4-9-7-6-9-3-8v-57l5-5z" fill="#fff"/>
<path transform="translate(629,366)" d="m0 0h20l11 4 11 8 7 10 3 8 1 5v46l-2 6-5 3-7-1-5-5v-36l-1-11-6-12-4-2-10-4h-10l-10 4-7 8-3 9v10l3 7 7 8 8 4 9 1 10-3 5-1v20l-4 3-7 1h-9l-14-3-10-5-7-6-7-11-3-10v-19l5-14 6-8 5-5 10-6z" fill="#fff"/>
<path transform="translate(387,366)" d="m0 0h9l13 4 11 7 6 7 5 10 2 10v43l-2 7-3 2h-10l-4-5-1-47-4-8-5-5-10-5h-12l-12 6-6 10-1 4v10l3 8 7 8 9 4h13l9-4 1 1v19l-2 3-4 1h-20l-13-4-8-6-8-9-5-11-1-4v-19l5-14 8-11 10-7 13-4z" fill="#fff"/>
<path transform="translate(102,311)" d="m0 0h60l1 1v92h-27v-65l-3 1h-37v-28z" fill="#3DE61F"/>
<path transform="translate(176,232)" d="m0 0h28v40h36l1 1v26l-1 1h-64z" fill="#3DE61F"/>
<path transform="translate(137,271)" d="m0 0 26 1 1 5v23l-1 1h-93v-28h67z" fill="#009EDD"/>
<path transform="translate(227,311)" d="m0 0h18l24 1 1 27-2 1-77 1-15-1v-28z" fill="#009EDD"/>
<path transform="translate(176,340)" d="m0 0h26l1 1v83l-1 4h-26z" fill="#3DE61F"/>
<path transform="translate(277,386)" d="m0 0h11l9 4 6 5 5 9 1 11-3 10-7 8-7 4-4 1h-11l-9-4-6-5-5-10-1-9 3-10 6-8 8-5z" fill="#000700"/>
<path transform="translate(161,199)" d="m0 0 3 1v71l-1 1h-24l-2-1-1-53v-14l1-4z" fill="#3DE61F"/>
<path transform="translate(161,337)" d="m0 0 2 3v64h-27v-65z" fill="#009EDD"/>
<path transform="translate(176,232)" d="m0 0h28v40l-1 1h-27z" fill="#009EDD"/>
<path transform="translate(633,479)" d="m0 0 5 1 1 20-9-2-5-5-9-8-1 3v12l-4 1v-21l5 1 8 7 9 8z" fill="#fff"/>
<path transform="translate(477,478)" d="m0 0 7 1 4 4-2 1-6-3-6 1-3 5 1 8 5 4 6-1 3-4 1-4-7 1-1-2 3-1 9 2-2 5-4 5-4 2-7-1-5-4-1-3v-9l4-5z" fill="#fff"/>
<path transform="translate(443,478)" d="m0 0 8 1 4 4 2 4-1 9-6 5-6 1-3-1v-21zm2 1-2 4v14l2 3 4-1 6-7-1-6-5-6z" fill="#fff"/>
<path transform="translate(654,478)" d="m0 0 9 3 1 3-5-2-5-1-5 3-2 3 1 7 3 4 4 1 6-3 3-1-1 4-6 3-7-1-6-7v-9l5-5z" fill="#fff"/>
<path transform="translate(573,478)" d="m0 0 8 1 3 2-1 3-6-3-5 1-4 3-1 6 2 5 5 3 6-2 4-2-1 4-6 3-6-1-5-4-2-4 1-9 6-5z" fill="#fff"/>
<path transform="translate(537,479)" d="m0 0h2l1 19 1 2 7-1-1 3h-9l-2-1v-17z" fill="#fff"/>
<path transform="translate(508,478)" d="m0 0 3 1-3 4-1 18-3-1v-20l-2-1z" fill="#fff"/>
<path transform="translate(522,480)" d="m0 0 4 2 6 16-1 3-4-5-3-8-3-2v-5z" fill="#fff"/>
<path transform="translate(589,479)" d="m0 0h2l1 17 1 3 7 1 5-3-2 4-6 2-7-2-1-1z" fill="#fff"/>
<path transform="translate(495,480)" d="m0 0h2v19l-1 2h-2v-20z" fill="#fff"/>
<path transform="translate(461,479)" d="m0 0h2l1 22h-3l-1-9v-12z" fill="#fff"/>
<path transform="translate(519,487)" d="m0 0h2l1 8-8 6 3-10z" fill="#fff"/>
</svg>
